<svg width="150" height="40" viewBox="0 0 150 40" fill="none" xmlns="http://www.w3.org/2000/svg">
<path d="M5.55859 28.7637H16.7559V33H0.285156V7.40625H5.55859V28.7637ZM24.8242 33H19.7266V13.9805H24.8242V33ZM19.4277 9.05859C19.4277 8.29688 19.6797 7.66992 20.1836 7.17773C20.6992 6.68555 21.3965 6.43945 22.2754 6.43945C23.1426 6.43945 23.834 6.68555 24.3496 7.17773C24.8652 7.66992 25.123 8.29688 25.123 9.05859C25.123 9.83203 24.8594 10.4648 24.332 10.957C23.8164 11.4492 23.1309 11.6953 22.2754 11.6953C21.4199 11.6953 20.7285 11.4492 20.2012 10.957C19.6855 10.4648 19.4277 9.83203 19.4277 9.05859ZM33.7012 13.9805L33.8594 16.1777C35.2188 14.4785 37.041 13.6289 39.3262 13.6289C41.3418 13.6289 42.8418 14.2207 43.8262 15.4043C44.8105 16.5879 45.3145 18.3574 45.3379 20.7129V33H40.2578V20.8359C40.2578 19.7578 40.0234 18.9785 39.5547 18.498C39.0859 18.0059 38.3066 17.7598 37.2168 17.7598C35.7871 17.7598 34.7148 18.3691 34 19.5879V33H28.9199V13.9805H33.7012ZM56.1133 25.3711L54.2852 27.1992V33H49.2051V6H54.2852V20.959L55.2695 19.6934L60.1387 13.9805H66.2383L59.3652 21.9082L66.8359 33H61L56.1133 25.3711ZM76.8379 33.3516C74.0488 33.3516 71.7754 32.4961 70.0176 30.7852C68.2715 29.0742 67.3984 26.7949 67.3984 23.9473V23.4551C67.3984 21.5449 67.7676 19.8398 68.5059 18.3398C69.2441 16.8281 70.2871 15.668 71.6348 14.8594C72.9941 14.0391 74.541 13.6289 76.2754 13.6289C78.877 13.6289 80.9219 14.4492 82.4102 16.0898C83.9102 17.7305 84.6602 20.0566 84.6602 23.0684V25.1426H72.5488C72.7129 26.3848 73.2051 27.3809 74.0254 28.1309C74.8574 28.8809 75.9062 29.2559 77.1719 29.2559C79.1289 29.2559 80.6582 28.5469 81.7598 27.1289L84.2559 29.9238C83.4941 31.002 82.4629 31.8457 81.1621 32.4551C79.8613 33.0527 78.4199 33.3516 76.8379 33.3516ZM76.2578 17.7422C75.25 17.7422 74.4297 18.082 73.7969 18.7617C73.1758 19.4414 72.7773 20.4141 72.6016 21.6797H79.668V21.2754C79.6445 20.1504 79.3398 19.2832 78.7539 18.6738C78.168 18.0527 77.3359 17.7422 76.2578 17.7422ZM86.7695 23.3496C86.7695 20.3848 87.4316 18.0234 88.7559 16.2656C90.0918 14.5078 91.9141 13.6289 94.2227 13.6289C96.0742 13.6289 97.6035 14.3203 98.8105 15.7031V6H103.908V33H99.3203L99.0742 30.9785C97.8086 32.5605 96.1797 33.3516 94.1875 33.3516C91.9492 33.3516 90.1504 32.4727 88.791 30.7148C87.4434 28.9453 86.7695 26.4902 86.7695 23.3496ZM91.8496 23.7188C91.8496 25.5 92.1602 26.8652 92.7812 27.8145C93.4023 28.7637 94.3047 29.2383 95.4883 29.2383C97.0586 29.2383 98.166 28.5762 98.8105 27.252V19.7461C98.1777 18.4219 97.082 17.7598 95.5234 17.7598C93.0742 17.7598 91.8496 19.7461 91.8496 23.7188Z" fill="#00ACFF"/>
<path d="M110 12.8C110 8.31958 110 6.07937 110.872 4.36808C111.639 2.86278 112.863 1.63893 114.368 0.871948C116.079 0 118.32 0 122.8 0H137.2C141.68 0 143.921 0 145.632 0.871948C147.137 1.63893 148.361 2.86278 149.128 4.36808C150 6.07937 150 8.31958 150 12.8V27.2C150 31.6804 150 33.9206 149.128 35.6319C148.361 37.1372 147.137 38.3611 145.632 39.1281C143.921 40 141.68 40 137.2 40H122.8C118.32 40 116.079 40 114.368 39.1281C112.863 38.3611 111.639 37.1372 110.872 35.6319C110 33.9206 110 31.6804 110 27.2V12.8Z" fill="#00ACFF"/>
<path d="M122.441 33H117.344V13.9805H122.441V33ZM117.045 9.05859C117.045 8.29688 117.297 7.66992 117.801 7.17773C118.316 6.68555 119.014 6.43945 119.893 6.43945C120.76 6.43945 121.451 6.68555 121.967 7.17773C122.482 7.66992 122.74 8.29688 122.74 9.05859C122.74 9.83203 122.477 10.4648 121.949 10.957C121.434 11.4492 120.748 11.6953 119.893 11.6953C119.037 11.6953 118.346 11.4492 117.818 10.957C117.303 10.4648 117.045 9.83203 117.045 9.05859ZM131.318 13.9805L131.477 16.1777C132.836 14.4785 134.658 13.6289 136.943 13.6289C138.959 13.6289 140.459 14.2207 141.443 15.4043C142.428 16.5879 142.932 18.3574 142.955 20.7129V33H137.875V20.8359C137.875 19.7578 137.641 18.9785 137.172 18.498C136.703 18.0059 135.924 17.7598 134.834 17.7598C133.404 17.7598 132.332 18.3691 131.617 19.5879V33H126.537V13.9805H131.318Z" fill="white"/>
</svg>
